# xmcd
#
# Track frame offsets:
#	150
#	14639
#	28797
#	47149
#	68081
#	81369
#	95904
#	111926
#	128689
#	144149
#	158844
#
# Disc length: 2383 seconds
#
# Revision: 1
# Processed by: cddbd v1.5.2PL0 Copyright (c) Steve Scherf et al.
# Submitted via: audiograbber 1.83.01
#
DISCID=94094d0b
DTITLE=Lucy Hale - Road Between
DYEAR=2014
DGENRE=Country
TTITLE0=You Sound Good to Me
TTITLE1=From the Backseat
TTITLE2=Nervous Girls
TTITLE3=Red Dress (Duet with Joe Nichols)
TTITLE4=Goodbye Gone
TTITLE5=Kiss Me
TTITLE6=Road Between
TTITLE7=Lie a Little Better
TTITLE8=That's What I Call Crazy
TTITLE9=Love Tonight
TTITLE10=Just Another Song
EXTD=
EXTT0=
EXTT1=
EXTT2=
EXTT3=
EXTT4=
EXTT5=
EXTT6=
EXTT7=
EXTT8=
EXTT9=
EXTT10=
PLAYORDER=
